<?xml version="1.0" encoding="UTF-8" standalone="no"?>
<!-- Created with Inkscape (http://www.inkscape.org/) -->

<svg
   xmlns:dc="http://purl.org/dc/elements/1.1/"
   xmlns:cc="http://creativecommons.org/ns#"
   xmlns:rdf="http://www.w3.org/1999/02/22-rdf-syntax-ns#"
   xmlns:svg="http://www.w3.org/2000/svg"
   xmlns="http://www.w3.org/2000/svg"
   xmlns:sodipodi="http://sodipodi.sourceforge.net/DTD/sodipodi-0.dtd"
   xmlns:inkscape="http://www.inkscape.org/namespaces/inkscape"
   width="53.96563mm"
   height="53.96563mm"
   viewBox="0 0 53.965632 53.965632"
   version="1.1"
   id="svg1111"
   inkscape:version="0.92.3 (2405546, 2018-03-11)"
   sodipodi:docname="logo-cuadrado-invertido.svg"
   inkscape:export-filename="/home/sergio/Dropbox/Compartidas/Aula de Software Libre/Grafismo/LOGOS/version-final/logo-cuadrado-fondo-blanco.png"
   inkscape:export-xdpi="300"
   inkscape:export-ydpi="300">
  <sodipodi:namedview
     id="base"
     pagecolor="#ffffff"
     bordercolor="#666666"
     borderopacity="1.0"
     inkscape:pageopacity="0"
     inkscape:pageshadow="2"
     inkscape:zoom="4.9579552"
     inkscape:cx="32.557282"
     inkscape:cy="91.189639"
     inkscape:document-units="mm"
     inkscape:current-layer="g956"
     showgrid="false"
     inkscape:lockguides="false"
     showguides="true"
     inkscape:guide-bbox="true"
     inkscape:window-width="2560"
     inkscape:window-height="1412"
     inkscape:window-x="2560"
     inkscape:window-y="0"
     inkscape:window-maximized="1"
     fit-margin-top="2"
     fit-margin-left="2"
     fit-margin-right="2"
     fit-margin-bottom="2"
     inkscape:measure-start="164.332,140.229"
     inkscape:measure-end="186.871,140.229"
     units="mm"
     inkscape:pagecheckerboard="true" />
  <defs
     id="defs1105" />
  <metadata
     id="metadata1108">
    <rdf:RDF>
      <cc:Work
         rdf:about="">
        <dc:format>image/svg+xml</dc:format>
        <dc:type
           rdf:resource="http://purl.org/dc/dcmitype/StillImage" />
        <dc:title></dc:title>
      </cc:Work>
    </rdf:RDF>
  </metadata>
  <g
     style="display:inline;opacity:1"
     inkscape:label="Imagotipo"
     id="layer6"
     inkscape:groupmode="layer"
     transform="translate(-2.0479679,0.60108161)">
    <g
       id="g9446">
      <g
         id="g9326"
         transform="translate(3.8305537,-0.56739753)">
        <g
           id="g9293"
           transform="translate(0,0.99845726)" />
      </g>
      <g
         id="g956">
        <rect
           y="2.6489184"
           x="5.2979679"
           height="47.46563"
           width="47.46563"
           id="rect9418"
           style="opacity:1;fill:none;fill-opacity:1;stroke:#fdfdfd;stroke-width:2.5;stroke-miterlimit:4;stroke-dasharray:none;stroke-opacity:1" />
        <g
           aria-label="AULA"
           transform="matrix(0.19817737,0,0,0.19817737,-36.522482,-64.443742)"
           style="font-style:normal;font-weight:normal;font-size:40px;line-height:1.25;font-family:sans-serif;letter-spacing:0px;word-spacing:0px;display:inline;opacity:1;fill:#ffffff;fill-opacity:1;stroke:none"
           id="flowRoot532-7-4-2">
          <path
             d="m 284.50019,398.60473 h -1.33954 q -0.46728,0 -0.68534,-0.52958 l -5.70081,-13.86262 h -22.4917 l -5.70081,13.86262 q -0.15576,0.52958 -0.71649,0.52958 h -1.27723 l 18.13043,-43.79964 h 1.65105 z m -29.65666,-15.70058 h 21.37024 l -10.03093,-24.39197 q -0.15576,-0.43613 -0.34267,-0.87226 -0.15576,-0.43613 -0.31152,-0.96571 -0.15576,0.52958 -0.34267,0.96571 -0.15576,0.43613 -0.31152,0.87226 z"
             style="letter-spacing:1.33508348px;fill:#ffffff"
             id="path847" />
          <path
             d="m 309.48154,397.60787 q 3.39557,0 6.04348,-1.18378 2.67907,-1.21492 4.51703,-3.3021 1.86912,-2.08718 2.83483,-4.89086 0.99686,-2.83482 0.99686,-6.07463 v -27.35141 h 1.74451 v 27.35141 q 0,3.55132 -1.12147,6.66652 -1.12147,3.08404 -3.2398,5.38929 -2.08718,2.30524 -5.07777,3.64477 -2.95943,1.30839 -6.69767,1.30839 -3.73823,0 -6.72882,-1.30839 -2.99058,-1.33953 -5.07776,-3.64477 -2.08718,-2.30525 -3.20865,-5.38929 -1.12147,-3.1152 -1.12147,-6.66652 v -27.35141 h 1.71335 v 27.28911 q 0,3.2398 0.96571,6.07463 0.99687,2.83483 2.83483,4.95316 1.86912,2.08718 4.54818,3.3021 2.67907,1.18378 6.07463,1.18378 z"
             style="letter-spacing:2.00262523px;fill:#ffffff"
             id="path849" />
          <path
             d="m 342.64585,397.10944 h 21.71291 v 1.49529 H 340.9325 v -43.79964 h 1.71335 z"
             style="letter-spacing:10.68066788px;fill:#ffffff"
             id="path851" />
          <path
             d="m 414.9733,398.60473 h -1.33953 q -0.46728,0 -0.68535,-0.52958 l -5.7008,-13.86262 h -22.49171 l -5.7008,13.86262 q -0.15576,0.52958 -0.7165,0.52958 h -1.27723 l 18.13043,-43.79964 h 1.65106 z m -29.65665,-15.70058 h 21.37023 l -10.03092,-24.39197 q -0.15576,-0.43613 -0.34268,-0.87226 -0.15576,-0.43613 -0.31152,-0.96571 -0.15575,0.52958 -0.34267,0.96571 -0.15576,0.43613 -0.31152,0.87226 z"
             style="font-style:normal;font-variant:normal;font-weight:200;font-stretch:normal;font-size:62.30389404px;font-family:Lato;-inkscape-font-specification:'Lato, Ultra-Light';font-variant-ligatures:normal;font-variant-caps:normal;font-variant-numeric:normal;font-feature-settings:normal;text-align:start;letter-spacing:5.34033394px;writing-mode:lr-tb;text-anchor:start;fill:#ffffff"
             id="path853" />
        </g>
        <g
           aria-label="LIBRE"
           transform="matrix(0.19858155,0,0,0.19858155,-36.779109,-32.239259)"
           style="font-style:normal;font-weight:normal;font-size:40px;line-height:1.25;font-family:sans-serif;letter-spacing:0px;word-spacing:0px;display:inline;opacity:1;fill:#ffffff;fill-opacity:1;stroke:none"
           id="flowRoot532-7-4-6-4">
          <path
             d="m 254.10941,396.99455 h 21.66872 v 1.49225 h -23.37859 v -43.71049 h 1.70987 z"
             style="letter-spacing:5.32946444px;fill:#ffffff"
             id="path856" />
          <path
             d="m 290.64886,398.4868 h -1.70987 v -43.71049 h 1.70987 z"
             style="letter-spacing:0px;fill:#ffffff"
             id="path858" />
          <path
             d="m 304.48326,398.4868 v -43.71049 h 11.84473 q 7.15037,0 10.63229,2.86014 3.48191,2.86015 3.48191,8.11411 0,1.83423 -0.68395,3.5441 -0.68394,1.70987 -1.92748,3.10885 -1.24355,1.39899 -3.01559,2.39382 -1.74096,0.99483 -3.91716,1.3679 2.7047,0.27979 4.81872,1.15027 2.14511,0.83939 3.60628,2.20729 1.49225,1.33681 2.26946,3.20212 0.77721,1.83422 0.77721,4.10369 0,2.79796 -0.96374,4.97416 -0.96375,2.14511 -2.82906,3.63736 -1.83422,1.49225 -4.50784,2.26947 -2.67361,0.77721 -6.09335,0.77721 z m 1.70987,-21.48218 v 20.08319 h 11.78256 q 6.12444,0 9.38874,-2.61143 3.29538,-2.64253 3.29538,-7.67887 0,-2.26947 -0.90157,-4.0726 -0.87047,-1.80314 -2.51817,-3.07777 -1.6166,-1.27463 -3.97933,-1.95858 -2.33164,-0.68394 -5.25396,-0.68394 z m 0,-1.30572 h 10.35248 q 3.29539,0 5.59594,-0.87048 2.33164,-0.90157 3.7928,-2.30055 1.49225,-1.43008 2.14511,-3.17104 0.68395,-1.77204 0.68395,-3.48191 0,-4.69437 -3.07776,-7.21254 -3.04668,-2.51818 -9.35766,-2.51818 h -10.13486 z"
             style="letter-spacing:3.33091545px;fill:#ffffff"
             id="path860" />
          <path
             d="m 348.38473,377.90618 v 20.58062 h -1.70987 v -43.71049 h 10.53901 q 7.11928,0 10.81882,2.76688 3.69953,2.76688 3.69953,8.3939 0,2.58035 -0.96374,4.69437 -0.96375,2.11403 -2.70471,3.66845 -1.74095,1.52334 -4.22804,2.42491 -2.48708,0.90157 -5.50267,1.0881 0.55959,0.31088 1.0881,0.93265 l 16.25931,19.74123 h -1.39899 q -0.34197,0 -0.62177,-0.0933 -0.24871,-0.0933 -0.49742,-0.43524 l -15.41991,-18.87074 q -0.24871,-0.34198 -0.52851,-0.5596 -0.24871,-0.21762 -0.59068,-0.34197 -0.31089,-0.15544 -0.77721,-0.21762 -0.43524,-0.0622 -1.0881,-0.0622 z m 0,-1.30571 h 8.33173 q 3.07776,0 5.53376,-0.71504 2.48708,-0.74613 4.19695,-2.11402 1.74096,-1.39899 2.64253,-3.35757 0.93265,-1.95857 0.93265,-4.41457 0,-5.06743 -3.29538,-7.46125 -3.29539,-2.39382 -9.5131,-2.39382 h -8.82914 z"
             style="letter-spacing:3.99709845px;fill:#ffffff"
             id="path862" />
          <path
             d="m 413.63597,354.77631 v 1.46116 h -24.09362 v 19.36816 h 20.30082 v 1.43007 h -20.30082 v 19.98994 h 24.1558 l -0.0622,1.46116 h -25.80349 v -43.71049 z"
             style="font-style:normal;font-variant:normal;font-weight:200;font-stretch:normal;font-size:62.17708588px;font-family:Lato;-inkscape-font-specification:'Lato, Ultra-Light';font-variant-ligatures:normal;font-variant-caps:normal;font-variant-numeric:normal;font-feature-settings:normal;text-align:start;letter-spacing:6.6618309px;writing-mode:lr-tb;text-anchor:start;fill:#ffffff"
             id="path864" />
        </g>
        <g
           aria-label="WARE"
           transform="matrix(0.13510864,0,0,0.13510864,-20.842237,-20.27182)"
           style="font-style:normal;font-weight:normal;font-size:40px;line-height:1.25;font-family:sans-serif;letter-spacing:-1.85840273px;word-spacing:0px;display:inline;opacity:1;fill:#ffffff;fill-opacity:1;stroke:none"
           id="flowRoot2886">
          <path
             d="m 245.63913,358.0244 h 12.23546 q 1.89564,0 3.14503,0.86166 1.29248,0.86165 1.68022,2.28337 l 8.61653,32.74279 q 0.38774,1.59406 0.77548,3.40353 0.38775,1.80947 0.77549,3.79127 0.77549,-4.04977 1.89564,-7.1948 l 10.16749,-32.74279 q 0.38775,-1.20631 1.63714,-2.15413 1.29248,-0.9909 3.10195,-0.9909 h 4.30826 q 1.89564,0 3.05887,0.90474 1.16323,0.86165 1.76638,2.24029 l 10.08134,32.74279 q 1.12014,3.01578 1.89563,6.85014 0.34466,-1.89564 0.68932,-3.61894 0.38775,-1.72331 0.77549,-3.2312 l 8.61652,-32.74279 q 0.34466,-1.24939 1.63714,-2.19721 1.29248,-0.94782 3.10195,-0.94782 h 11.45998 l -19.38718,62.77137 h -13.18328 l -11.80464,-38.9036 q -0.64624,-1.85255 -1.24939,-4.26518 -0.60316,2.41263 -1.2494,4.26518 l -11.97697,38.9036 H 265.0263 Z"
             style="letter-spacing:-7.83320236px;fill:#ffffff"
             id="path867" />
          <path
             d="m 391.73607,420.79577 h -11.28764 q -1.89564,0 -3.05887,-0.86165 -1.16323,-0.90473 -1.76638,-2.28338 l -3.70511,-10.94298 H 348.0503 l -3.7051,10.94298 q -0.47391,1.20632 -1.72331,2.19722 -1.20631,0.94781 -3.01578,0.94781 H 328.2323 l 24.29859,-62.77137 h 14.90659 z m -40.32532,-23.99701 h 17.14688 l -5.77307,-17.18997 q -0.64624,-1.63714 -1.37865,-3.83435 -0.7324,-2.2403 -1.46481,-4.82525 -0.68932,2.62804 -1.42172,4.86833 -0.68932,2.2403 -1.33556,3.87744 z"
             style="font-style:normal;font-variant:normal;font-weight:900;font-stretch:normal;font-size:86.1652298px;font-family:Lato;-inkscape-font-specification:'Lato, Heavy';font-variant-ligatures:normal;font-variant-caps:normal;font-variant-numeric:normal;font-feature-settings:normal;text-align:start;letter-spacing:-1.85840273px;writing-mode:lr-tb;text-anchor:start;fill:#ffffff"
             id="path869" />
          <path
             d="m 409.38871,397.57424 v 23.22153 H 394.82678 V 358.0244 h 20.42116 q 6.80706,0 11.58923,1.42173 4.82525,1.37864 7.84103,3.87743 3.05887,2.4988 4.43751,5.90232 1.37865,3.40353 1.37865,7.41021 0,3.05887 -0.81857,5.77307 -0.81857,2.71421 -2.45571,5.04067 -1.59406,2.28338 -3.9636,4.09285 -2.32646,1.80947 -5.38533,2.9727 1.46481,0.7324 2.71421,1.85255 1.24939,1.07707 2.24029,2.58496 l 13.35561,21.84288 h -13.18328 q -3.66202,0 -5.25608,-2.75728 l -10.42599,-18.22395 q -0.7324,-1.16323 -1.63714,-1.68022 -0.90473,-0.56008 -2.58496,-0.56008 z m 0,-10.03825 h 5.85923 q 2.9727,0 5.04067,-0.7324 2.11105,-0.77549 3.44661,-2.11105 1.33556,-1.33556 1.93872,-3.10195 0.60315,-1.80947 0.60315,-3.87743 0,-4.13593 -2.7142,-6.46239 -2.67112,-2.32647 -8.31495,-2.32647 h -5.85923 z"
             style="font-style:normal;font-variant:normal;font-weight:900;font-stretch:normal;font-size:86.1652298px;font-family:Lato;-inkscape-font-specification:'Lato, Heavy';font-variant-ligatures:normal;font-variant-caps:normal;font-variant-numeric:normal;font-feature-settings:normal;text-align:start;letter-spacing:-1.85840273px;writing-mode:lr-tb;text-anchor:start;fill:#ffffff"
             id="path871" />
          <path
             d="m 490.0941,358.0244 v 11.20148 h -25.76341 v 14.64809 h 19.73184 v 10.77066 h -19.73184 v 14.94966 h 25.76341 v 11.20148 H 449.6826 V 358.0244 Z"
             style="font-style:normal;font-variant:normal;font-weight:900;font-stretch:normal;font-size:86.1652298px;font-family:Lato;-inkscape-font-specification:'Lato, Heavy';font-variant-ligatures:normal;font-variant-caps:normal;font-variant-numeric:normal;font-feature-settings:normal;text-align:start;letter-spacing:-1.85840273px;writing-mode:lr-tb;text-anchor:start;fill:#ffffff"
             id="path873" />
        </g>
        <g
           aria-label="FT"
           transform="matrix(0.16403442,0,0,0.16403442,-10.739026,-42.51506)"
           style="font-style:normal;font-weight:normal;font-size:40px;line-height:1.25;font-family:sans-serif;letter-spacing:-1.85840273px;word-spacing:0px;fill:#ffffff;fill-opacity:1;stroke:none"
           id="flowRoot532-7-0-0-3">
          <path
             d="m 291.87745,357.99621 v 11.18329 h -25.72157 v 15.87167 h 21.4203 v 11.2263 h -21.4203 v 24.38817 h -14.6243 v -62.66943 z"
             style="font-style:normal;font-variant:normal;font-weight:900;font-stretch:normal;font-size:86.0253067px;font-family:Lato;-inkscape-font-specification:'Lato, Heavy';font-variant-ligatures:normal;font-variant-caps:normal;font-variant-numeric:normal;font-feature-settings:normal;text-align:start;letter-spacing:0px;writing-mode:lr-tb;text-anchor:start;fill:#ffffff"
             id="path876" />
          <path
             d="m 345.2911,357.99621 v 11.52739 h -17.63519 v 51.14204 H 313.11764 V 369.5236 h -17.63519 v -11.52739 z"
             style="font-style:normal;font-variant:normal;font-weight:900;font-stretch:normal;font-size:86.0253067px;font-family:Lato;-inkscape-font-specification:'Lato, Heavy';font-variant-ligatures:normal;font-variant-caps:normal;font-variant-numeric:normal;font-feature-settings:normal;text-align:start;letter-spacing:0px;writing-mode:lr-tb;text-anchor:start;fill:#ffffff"
             id="path878" />
        </g>
        <g
           aria-label="S"
           transform="matrix(0.16403442,0,0,0.16403442,-27.993493,-42.51506)"
           style="font-style:normal;font-weight:normal;font-size:40px;line-height:1.25;font-family:sans-serif;letter-spacing:-1.85840273px;word-spacing:0px;fill:#ffffff;fill-opacity:1;stroke:none"
           id="flowRoot532-7-0-0-3-1">
          <path
             d="m 286.15677,370.72795 q -0.64519,1.03231 -1.37641,1.54846 -0.6882,0.51615 -1.80653,0.51615 -0.98929,0 -2.15063,-0.60218 -1.11833,-0.64519 -2.58076,-1.41941 -1.41942,-0.77423 -3.26896,-1.37641 -1.84955,-0.64519 -4.21524,-0.64519 -4.08621,0 -6.1078,1.76352 -1.97858,1.72051 -1.97858,4.68838 0,1.89256 1.20435,3.13992 1.20436,1.24737 3.13993,2.15064 1.97858,0.90326 4.47331,1.67749 2.53775,0.73121 5.16152,1.67749 2.62377,0.90327 5.11851,2.15064 2.53774,1.24736 4.47331,3.18293 1.97858,1.93557 3.18294,4.73139 1.20435,2.75281 1.20435,6.66697 0,4.34427 -1.50544,8.12939 -1.50544,3.78511 -4.38729,6.62395 -2.83884,2.79582 -7.05408,4.4303 -4.17222,1.59147 -9.50579,1.59147 -2.92486,0 -5.97876,-0.60218 -3.01089,-0.60218 -5.84972,-1.67749 -2.83884,-1.11833 -5.33357,-2.62378 -2.49473,-1.50544 -4.34428,-3.35498 l 4.30127,-6.796 q 0.51615,-0.73122 1.33339,-1.20436 0.86025,-0.51615 1.84954,-0.51615 1.29038,0 2.58076,0.81724 1.33339,0.81724 2.96788,1.80653 1.67749,0.9893 3.82812,1.80654 2.15063,0.81724 5.07549,0.81724 3.95717,0 6.15081,-1.72051 2.19365,-1.76352 2.19365,-5.54863 0,-2.19365 -1.20436,-3.57005 -1.20435,-1.37641 -3.18293,-2.27967 -1.93557,-0.90327 -4.4303,-1.59147 -2.49474,-0.6882 -5.11851,-1.50544 -2.62377,-0.86026 -5.11851,-2.06461 -2.49473,-1.24737 -4.47331,-3.22595 -1.93557,-2.0216 -3.13993,-4.98947 -1.20435,-3.01088 -1.20435,-7.39817 0,-3.52704 1.41942,-6.88203 1.41941,-3.35499 4.17222,-5.97876 2.75281,-2.62377 6.75299,-4.17223 4.00018,-1.59146 9.1617,-1.59146 2.88184,0 5.59164,0.47314 2.75281,0.43012 5.20453,1.33339 2.45172,0.86025 4.55934,2.10762 2.15064,1.20435 3.82813,2.75281 z"
             style="font-style:normal;font-variant:normal;font-weight:900;font-stretch:normal;font-size:86.0253067px;font-family:Lato;-inkscape-font-specification:'Lato, Heavy';font-variant-ligatures:normal;font-variant-caps:normal;font-variant-numeric:normal;font-feature-settings:normal;text-align:start;letter-spacing:-1.85840273px;writing-mode:lr-tb;text-anchor:start;fill:#ffffff"
             id="path881" />
        </g>
        <path
           sodipodi:nodetypes="scccscccaaassssaaaaasaaaaaaaaaaaaaaaaa"
           inkscape:connector-curvature="0"
           d="m 29.744782,23.226704 c 0,0.511065 -0.110826,1.049261 -0.332481,1.509915 -0.221652,0.46065 -0.534951,0.858176 -0.939894,1.192573 -0.40068,0.330987 -0.884481,0.590315 -1.451403,0.777988 -0.562658,0.187672 -1.189253,0.28151 -1.87979,0.28151 -0.686271,0 -1.312868,-0.09384 -1.87979,-0.28151 -0.562659,-0.187673 -1.04646,-0.447001 -1.451403,-0.777988 -0.404943,-0.334397 -0.718242,-0.731923 -0.939894,-1.192573 -0.221655,-0.460654 -0.33248,-0.99885 -0.33248,-1.509915 0,-0.511061 0.195568,-1.010737 0.33248,-1.509911 0.163227,-0.595119 0.422702,-1.171706 0.582126,-1.767487 0.07647,-0.285757 0.160035,-0.610585 0.179082,-0.864918 0.01906,-0.25433 -0.729099,-0.274977 -0.634666,-0.498653 0.196668,-0.465815 1.137189,-0.576558 1.32379,-1.057291 0.186601,-0.480734 0.432635,-0.931924 0.867019,-1.279561 0.504278,-0.403574 1.275083,-0.698353 1.984361,-0.639627 0.72348,0.0599 1.334532,0.532731 1.814434,0.97025 0.737363,0.672247 1.088249,1.569769 1.486128,2.405764 0.420031,0.882533 0.680559,1.810207 0.939896,2.731523 0.140338,0.498563 0.332481,0.99885 0.332481,1.509911 z m -1.787175,-0.07406 c -0.01999,-0.425113 -0.148403,-0.843021 -0.2544,-1.259889 -0.186179,-0.732192 -0.36993,-1.468918 -0.669321,-2.176645 -0.292553,-0.69157 -0.4921,-1.459487 -1.09492,-2.007435 -0.255263,-0.232026 -0.608637,-0.468508 -0.994763,-0.475604 -0.392665,-0.0072 -0.789728,0.20253 -1.038285,0.44598 -0.649471,0.636132 -0.629994,1.564826 -0.886572,2.360301 -0.219506,0.680533 -0.420473,1.366542 -0.557539,2.060775 -0.07457,0.377696 -0.173937,0.759795 -0.143376,1.141392 0.03096,0.386483 0.133104,0.77738 0.32841,1.131697 0.16037,0.290932 0.386125,0.568144 0.675714,0.785821 0.264848,0.19908 0.589574,0.358081 0.934856,0.448551 0.281191,0.07368 0.588145,0.07474 0.883803,0.06576 0.457081,-0.01388 0.932426,-0.03989 1.352784,-0.18426 0.305582,-0.104948 0.583692,-0.275283 0.798938,-0.478175 0.261212,-0.246223 0.445927,-0.54963 0.5583,-0.859884 0.116189,-0.320792 0.122048,-0.664617 0.106371,-0.998387 z"
           style="font-style:normal;font-variant:normal;font-weight:600;font-stretch:normal;font-size:85.33333588px;line-height:1.25;font-family:Lato;-inkscape-font-specification:'Lato, Semi-Bold';font-variant-ligatures:normal;font-variant-caps:normal;font-variant-numeric:normal;font-feature-settings:normal;text-align:start;letter-spacing:0px;word-spacing:0px;writing-mode:lr-tb;text-anchor:start;fill:#ffffff;fill-opacity:1;stroke:none;stroke-width:0.13407786;stroke-opacity:1"
           id="path66-8-5-3-8-9-5-4" />
        <path
           inkscape:connector-curvature="0"
           style="fill:#ffffff;stroke-width:0.0563402"
           d="m 24.570746,18.092615 c 0.20404,-0.0013 0.41273,0.119103 0.397475,0.228819 -0.01359,0.09764 -0.183931,0.153171 -0.296941,0.0968 -0.06954,-0.03467 -0.171058,-0.01362 -0.329347,0.06829 -0.185491,0.09601 -0.239973,0.102719 -0.287689,0.03548 -0.0414,-0.05833 -0.01461,-0.129537 0.0902,-0.239903 0.178215,-0.18765 0.179478,-0.188209 0.426325,-0.189428 z"
           id="path21" />
      </g>
    </g>
  </g>
</svg>
